<?xml version="1.0" standalone="no"?>
<!DOCTYPE svg PUBLIC "-//W3C//DTD SVG 20010904//EN"
 "http://www.w3.org/TR/2001/REC-SVG-20010904/DTD/svg10.dtd">
<svg version="1.0" xmlns="http://www.w3.org/2000/svg"
 width="26.000000pt" height="26.000000pt" viewBox="0 0 26.000000 26.000000"
 preserveAspectRatio="xMidYMid meet">

<g transform="translate(0.000000,26.000000) scale(0.100000,-0.100000)"
fill="#000000" stroke="none">
<path d="M57 232 c-34 -36 -34 -61 1 -94 19 -19 40 -28 71 -30 51 -3 73 -26
52 -52 -18 -22 -89 -21 -113 1 -14 13 -21 14 -30 5 -9 -9 -6 -18 12 -37 19
-20 33 -25 74 -25 41 0 55 5 78 27 35 34 35 62 0 96 -21 20 -38 27 -69 27 -47
0 -73 22 -56 48 14 24 70 27 94 6 15 -13 22 -15 31 -6 9 9 6 18 -12 37 -34 36
-97 35 -133 -3z"/>
</g>
</svg>
